<svg width="206" height="14" viewBox="0 0 206 14" fill="none" xmlns="http://www.w3.org/2000/svg">
<path fill-rule="evenodd" clip-rule="evenodd" d="M199.045 0.345825L205.683 7.17286L199.045 13.9999L198.098 13.0254L203.788 7.17286L198.098 1.32037L199.045 0.345825Z" fill="white"/>
<path fill-rule="evenodd" clip-rule="evenodd" d="M204.736 7.86183L164.228 7.86183L164.228 6.48361L204.736 6.48362L204.736 7.86183Z" fill="white"/>
<path fill-rule="evenodd" clip-rule="evenodd" d="M6.63807 14L2.29917e-05 7.17301L6.63807 0.345975L7.58563 1.32052L1.89516 7.17301L7.58563 13.0255L6.63807 14Z" fill="white"/>
<path fill-rule="evenodd" clip-rule="evenodd" d="M0.947579 6.48404L41.4556 6.48404L41.4556 7.86226L0.947578 7.86225L0.947579 6.48404Z" fill="white"/>
<rect x="125.164" y="1.84384" width="9.56667" height="9.83904" rx="4.78333" fill="white" fill-opacity="0.3"/>
<rect x="98.0583" y="1.84384" width="9.56667" height="9.83904" rx="4.78333" fill="white" fill-opacity="0.3"/>
<rect x="70.9528" y="1.84369" width="9.56667" height="9.83904" rx="4.78333" fill="white"/>
</svg>
